<svg width="39" height="44" viewBox="0 0 39 44" fill="none" xmlns="http://www.w3.org/2000/svg">
<path d="M0.0400391 10.9925V32.9775L19.079 43.9699L38.1179 32.9775V10.9925L19.079 0L0.0400391 10.9925Z" fill="white"/>
<path d="M5.97705 29.6707V14.5898L19.0388 7.04942L32.1005 14.5898V29.6707L19.0388 37.2111L5.97705 29.6707Z" fill="#4B6CCB"/>
<path d="M19.0388 37.2111L32.1005 29.6707L19.0388 23.1223L5.97705 29.6707L19.0388 37.2111Z" fill="#193F8E"/>
<path d="M0 10.9925L5.97723 14.4446L19.0389 6.90412L32.1007 14.4446L38.0779 10.9925L19.0389 0L0 10.9925Z" fill="#DCE7F4"/>
<path d="M19.0791 37.0959V44L38.118 33.0075V11.0226L32.1408 14.4746V29.5555L19.0791 37.0959Z" fill="#C5CCD6"/>
<path d="M32.1008 29.6707L19.0391 23.1223V7.04942L32.1008 14.5898V29.6707Z" fill="#1E57DC"/>
<path d="M25.6925 24.0442C25.6925 25.6875 24.3547 27.0253 22.7114 27.0253C21.068 27.0253 19.7303 25.6875 19.7303 24.0442C19.7303 22.4008 21.068 21.0631 22.7114 21.0631V19.4598C22.6112 19.4598 22.516 19.4698 22.4208 19.4748C21.9147 19.4698 21.5039 19.059 21.5039 18.5529C21.5039 18.0469 21.9147 17.6361 22.4208 17.6361C22.9268 17.6361 23.3377 18.0469 23.3377 18.5529H24.9409C24.9409 17.1601 23.8086 16.0328 22.4208 16.0328C21.0329 16.0328 19.9006 17.1651 19.9006 18.5529C19.9006 19.1291 20.096 19.6552 20.4217 20.0811C19.0539 20.8727 18.127 22.3557 18.127 24.0492C18.127 25.7426 16.7893 27.0303 15.1459 27.0303C13.5025 27.0303 12.1648 25.6925 12.1648 24.0492C12.1648 22.4058 13.5025 21.0681 15.1459 21.0681V19.4648C15.0457 19.4648 14.9505 19.4748 14.8553 19.4798C14.3493 19.4748 13.9384 19.064 13.9384 18.558C13.9384 18.0519 14.3493 17.6411 14.8553 17.6411C15.3613 17.6411 15.7722 18.0519 15.7722 18.558H17.3755C17.3755 17.1651 16.2431 16.0378 14.8553 16.0378C13.4675 16.0378 12.3351 17.1701 12.3351 18.558C12.3351 19.1341 12.5306 19.6602 12.8562 20.0861C11.4884 20.8777 10.5615 22.3607 10.5615 24.0542C10.5615 26.5844 12.6207 28.6386 15.1459 28.6386C16.7141 28.6386 18.1019 27.847 18.9286 26.6395C19.7553 27.847 21.1432 28.6386 22.7114 28.6386C25.2415 28.6386 27.2957 26.5794 27.2957 24.0542H25.6925V24.0442Z" fill="white"/>
</svg>
